<svg xmlns="http://www.w3.org/2000/svg" width="16" height="16"><path fill-rule="evenodd" fill="#FE3E57" d="M13.656 10.342a7.974 7.974 0 00-3.04-1.907 4.621 4.621 0 002.008-3.811C12.624 2.74 10.55 0 7.999 0c-2.55 0-4.625 2.74-4.625 4.624 0 1.58.797 2.977 2.009 3.811a7.974 7.974 0 00-3.04 1.907A7.948 7.948 0 000 15.999h1.249a6.758 6.758 0 016.75-6.75 6.758 6.758 0 016.75 6.75h1.25a7.948 7.948 0 00-2.343-5.657zM4.624 4.624a3.379 3.379 0 013.375-3.375 3.379 3.379 0 013.375 3.375 3.379 3.379 0 01-3.375 3.375 3.379 3.379 0 01-3.375-3.375z"/></svg>