<svg xmlns="http://www.w3.org/2000/svg" width="20" height="21"><path fill-rule="evenodd" fill="#FE3E57" d="M17.7 17.621c-2.518 1.889-5.029 2.929-7.701 2.929a9.934 9.934 0 01-7.071-2.929C1.4 15.732 0 13.221 0 10.55c0-2.671 1.4-5.182 2.928-7.071A9.934 9.934 0 019.999.55c2.672 0 5.183 1.04 7.701 2.929 1.259 1.889 2.299 4.4 2.299 7.071 0 2.671-1.04 5.182-2.299 7.071zM9.999 1.722c-4.867 0-8.828 3.96-8.828 8.828 0 4.868 3.961 8.828 8.828 8.828 4.868 0 8.829-3.96 8.829-8.828 0-4.868-3.961-8.828-8.829-8.828zm-.811 12.036c.552.115-.264.172-.414.172a.58.58 0 01-.414-.172L5.222 10.62c-.229-.228-.229-.41 0-.828.229-.229.6-.229 1.278 0l2.274 2.723 5.174-5.174a.586.586 0 01.829 0c.823.229.823.6 0 .829l-5.589 5.588z"/></svg>