<svg xmlns="http://www.w3.org/2000/svg" width="16" height="16"><path fill-rule="evenodd" fill="#FE3E57" d="M15.374 0H.624A.624.624 0 000 .624v12.375c0 .345.279.625.624.625h5.531l1.316 2.084a.625.625 0 001.057 0l1.316-2.084h5.53c.346 0 .625-.28.625-.625V.624A.624.624 0 0015.374 0zm-.625 12.374h-5.25c-.214 0 .361.11-.528.291l-.972 1.539-.719-1.539c-.367-.181-.566-.291-.781-.291h-5.25V1.249h13.5v11.125zM7.218 6.812c0-.432.35-.512.781-.512.432 0 .782.08.782.512a.782.782 0 01-1.563 0zm-2.288 0c0-.432-.487-.512-.056-.512.432 0 .782.08.782.512 0 .431-.35.781-.782.781-.431 0 .056-.35.056-.781zm5.413 0c0-.432.35-.512.781-.512.432 0 .782.08.782.512a.782.782 0 01-1.563 0z"/></svg>