<svg xmlns="http://www.w3.org/2000/svg" width="16" height="16"><path fill-rule="evenodd" fill="#FE3E57" d="M14.124 15.999H1.874A1.877 1.877 0 010 14.124v-11C0 2.9.841 1.249 1.874 1.249h.75V0h1.251v1.249h8.249V0h1.25v1.249h.75c1.034 0 1.875 1.651 1.875 1.875v11a1.878 1.878 0 01-1.875 1.875zm.625-12.875a.625.625 0 00-.625-.625h-.75v1.25h-1.25v-1.25H3.875v1.25H2.624v-1.25h-.75a.626.626 0 00-.625.625v1.5h13.5v-1.5zm0 2.75h-13.5v8.25c0 .344.281.625.625.625h12.25a.626.626 0 00.625-.625v-8.25zm-2.375 3.812h1.25v1.25h-1.25v-1.25zm0-2.5h1.25v1.25h-1.25v-1.25zm-2.5 5h1.25v1.25h-1.25v-1.25zm0-2.5h1.25v1.25h-1.25v-1.25zm0-2.5h1.25v1.25h-1.25v-1.25zm-2.5 5h1.25v1.25h-1.25v-1.25zm0-2.5h1.25v1.25h-1.25v-1.25zm0-2.5h1.25v1.25h-1.25v-1.25zm-2.5 5h1.25v1.25h-1.25v-1.25zm0-2.5h1.25v1.25h-1.25v-1.25zm0-2.5h1.25v1.25h-1.25v-1.25zm-2.5 5h1.25v1.25h-1.25v-1.25zm0-2.5h1.25v1.25h-1.25v-1.25zm0-2.5h1.25v1.25h-1.25v-1.25z"/></svg>