<svg xmlns="http://www.w3.org/2000/svg" width="16" height="16"><path fill-rule="evenodd" fill="#727272" d="M7.998 0L.228 6.857C.4 7.94.69 7.508.164 7.781c.233.759.64 1.049 1.566.065l-.37-.253v6.737c0 .789.865 1.669 1.933 1.669h3.61v-5.274c0 .195.505-1.146 1.407-1.146.344 0 .849 1.341.849 1.146v5.274h3.545c1.068 0 1.933-.88 1.933-1.669V7.593l.287.253c.268.984.676.694.909-.065.827-.273.547.159-.064-.924L7.998 0zm5.35 14.33c0 .065.252.359-.644.359h-2.256v-3.964c0-1.357-1.082-2.457-2.138-2.457-1.614 0-2.696 1.1-2.696 2.457v3.964H3.293c-.356 0-.644-.294-.644-.359V6.455l5.349-4.721 5.35 4.721v7.875z"/></svg>