<svg xmlns="http://www.w3.org/2000/svg" width="1627" height="369"><defs><filter filterUnits="userSpaceOnUse" id="Filter_0" x="1561" y="303" width="66" height="66"><feOffset in="SourceAlpha" dy="3"/><feGaussianBlur result="blurOut" stdDeviation="3.162"/><feFlood flood-color="#FE3E57" result="floodOut"/><feComposite operator="atop" in="floodOut" in2="blurOut"/><feComponentTransfer><feFuncA type="linear" slope=".5"/></feComponentTransfer><feMerge><feMergeNode/><feMergeNode in="SourceGraphic"/></feMerge></filter></defs><g filter="url(#Filter_0)"><path fill-rule="evenodd" fill="#FE3E57" d="M1593.498 355.997c-12.979 0-23.501-10.522-23.501-23.5 0-12.979 10.522-23.498 23.501-23.498 12.98 0 23.702 10.519 23.702 23.498 0 12.978-10.722 23.5-23.702 23.5zm0-42.196c-10.325 0-18.699 8.369-18.699 18.696 0 10.328 8.374 18.697 18.699 18.697 10.33 0 18.7-8.369 18.7-18.697 0-10.327-8.37-18.696-18.7-18.696zm-.018 24.303c-3.097.826-5.595-2.528-5.587-5.625a5.603 5.603 0 015.623-5.585 5.604 5.604 0 015.589 5.623c.855 3.094-2.528 5.596-5.625 5.587z"/></g><path fill-rule="evenodd" fill="#34C3FF" d="M103.8 54.656c-1.987 0-2.954-.965-2.954-2.158 0-1.192.967-2.157 2.954-2.157.399 0 1.368.965 1.368 2.157 0 1.193-.969 2.158-1.368 2.158zm-7.995 7.192a2.16 2.16 0 01-2.162-2.158 2.16 2.16 0 012.162-2.157 2.157 2.157 0 110 4.315zm0-14.384a2.16 2.16 0 01-2.162-2.158 2.16 2.16 0 014.321 0 2.158 2.158 0 01-2.159 2.158zM88.601 69.39c-1.194 0-2.161-.65-2.161-2.507 0-1.193.967-2.158 2.161-2.158a2.16 2.16 0 012.162 2.158c0 1.857-.97 2.507-2.162 2.507zm2.16-16.892a2.16 2.16 0 01-2.161 2.158 2.158 2.158 0 110-4.315c1.193 0 2.161.965 2.161 2.157zm-2.16-12.226a2.158 2.158 0 110-4.314 2.16 2.16 0 012.162 2.157c0 1.191-.97 2.157-2.162 2.157zm-7.204 35.96c-1.194 0-2.161-.966-2.161-1.492 0-1.857.967-2.824 2.161-2.824 1.193 0 2.161.967 2.161 2.824 0 .526-.968 1.492-2.161 1.492zm0-14.384a2.158 2.158 0 110-4.315c1.193 0 2.161.965 2.161 2.157a2.16 2.16 0 01-2.161 2.158zm0-14.384a2.16 2.16 0 110-4.316 2.16 2.16 0 012.161 2.158 2.16 2.16 0 01-2.161 2.158zm0-13.654c-1.194 0-2.161-1.697-2.161-2.887a2.16 2.16 0 012.161-2.158 2.16 2.16 0 012.161 2.158c0 1.19-.968 2.887-2.161 2.887zm-7.203 49.614c-1.094 0-1.854-.967-1.854-2.158 0-.526.76-2.158 1.854-2.158 1.193 0 2.16 1.632 2.16 2.158a2.16 2.16 0 01-2.16 2.158zm0-14.034c-1.094 0-1.854-.65-1.854-2.507 0-1.193.76-2.158 1.854-2.158 1.193 0 2.16.965 2.16 2.158 0 1.857-.967 2.507-2.16 2.507zm0-14.734c-1.094 0-1.854-.965-1.854-2.158 0-1.192.76-2.157 1.854-2.157a2.158 2.158 0 110 4.315zm0-14.384c-1.094 0-1.854-.966-1.854-2.157 0-1.192.76-2.157 1.854-2.157a2.158 2.158 0 110 4.314zm0-14.384c-1.094 0-1.854-.965-1.854-2.157 0-1.193.76-2.158 1.854-2.158a2.158 2.158 0 110 4.315zm-7.203 64.727a2.16 2.16 0 01-2.162-2.157 2.16 2.16 0 012.162-2.158 2.159 2.159 0 110 4.315zm0-14.383c-1.195 0-2.162-.966-2.162-1.492 0-1.857.967-2.824 2.162-2.824 1.193 0 2.16.967 2.16 2.824 0 .526-.967 1.492-2.16 1.492zm0-14.384a2.158 2.158 0 110-4.315 2.158 2.158 0 110 4.315zm0-14.384a2.16 2.16 0 01-2.162-2.158 2.16 2.16 0 012.162-2.158 2.159 2.159 0 110 4.316zm0-13.654c-1.195 0-2.162-1.697-2.162-2.887a2.16 2.16 0 012.162-2.158c1.193 0 2.16.966 2.16 2.158 0 1.19-.967 2.887-2.16 2.887zm0-15.113a2.16 2.16 0 01-2.162-2.158 2.16 2.16 0 012.162-2.158 2.16 2.16 0 012.16 2.158 2.16 2.16 0 01-2.16 2.158zm-7.204 64.727a2.16 2.16 0 01-2.162-2.158c0-.526.968-2.158 2.162-2.158 1.193 0 2.161 1.632 2.161 2.158a2.16 2.16 0 01-2.161 2.158zm0-18.699a2.16 2.16 0 012.161 2.158c0 1.857-.969 2.507-2.161 2.507-1.194 0-2.162-.65-2.162-2.507a2.16 2.16 0 012.162-2.158zm0-10.069a2.16 2.16 0 01-2.162-2.158 2.16 2.16 0 012.162-2.157c1.193 0 2.161.965 2.161 2.157a2.16 2.16 0 01-2.161 2.158zm0-18.698a2.16 2.16 0 012.161 2.157 2.16 2.16 0 01-2.161 2.157 2.16 2.16 0 01-2.162-2.157 2.16 2.16 0 012.162-2.157zm0-10.07a2.16 2.16 0 01-2.162-2.157 2.16 2.16 0 012.162-2.158 2.16 2.16 0 012.161 2.158 2.159 2.159 0 01-2.161 2.157zm0-14.384a2.16 2.16 0 01-2.162-2.157 2.16 2.16 0 012.162-2.157 2.16 2.16 0 012.161 2.157 2.16 2.16 0 01-2.161 2.157zm-7.203 93.495h-.001c-1.194 0-2.161-.669-2.161-2.157a2.16 2.16 0 012.161-2.159h.001a2.16 2.16 0 012.161 2.159c0 1.488-.968 2.157-2.161 2.157zM52.583 86.3a2.16 2.16 0 012.161 2.158 2.16 2.16 0 01-2.161 2.157 2.159 2.159 0 01-2.161-2.157 2.16 2.16 0 012.161-2.158zm.001-10.068h-.001c-1.194 0-2.161-.966-2.161-1.492 0-1.857.967-2.824 2.161-2.824h.001c1.193 0 2.161.967 2.161 2.824 0 .526-.968 1.492-2.161 1.492zm-.001-18.699c1.193 0 2.161.965 2.161 2.157a2.16 2.16 0 01-2.161 2.158 2.158 2.158 0 110-4.315zm.001-10.069h-.001a2.16 2.16 0 110-4.316h.001a2.16 2.16 0 012.161 2.158 2.16 2.16 0 01-2.161 2.158zm-.001-18.699a2.16 2.16 0 012.161 2.158c0 1.19-.968 2.887-2.161 2.887-1.194 0-2.161-1.697-2.161-2.887a2.16 2.16 0 012.161-2.158zm.001-10.068h-.001a2.16 2.16 0 01-2.161-2.158 2.16 2.16 0 012.161-2.158h.001a2.16 2.16 0 012.161 2.158 2.16 2.16 0 01-2.161 2.158zm-.001-14.385a2.158 2.158 0 01-2.161-2.157C50.422.964 51.389.2 52.583.2c1.193 0 2.161.764 2.161 1.955a2.159 2.159 0 01-2.161 2.157zm-7.204 93.494a2.158 2.158 0 110-4.314 2.16 2.16 0 012.162 2.158 2.159 2.159 0 01-2.162 2.156zm0-14.382a2.16 2.16 0 01-2.16-2.158c0-.526.967-2.158 2.16-2.158 1.194 0 2.162 1.632 2.162 2.158a2.16 2.16 0 01-2.162 2.158zm0-14.034c-1.193 0-2.16-.65-2.16-2.507 0-1.193.967-2.158 2.16-2.158a2.16 2.16 0 012.162 2.158c0 1.857-.968 2.507-2.162 2.507zm0-14.734a2.158 2.158 0 110-4.315 2.16 2.16 0 012.162 2.157 2.16 2.16 0 01-2.162 2.158zm0-14.384a2.158 2.158 0 110-4.314 2.16 2.16 0 012.162 2.157 2.16 2.16 0 01-2.162 2.157zm0-14.384a2.158 2.158 0 110-4.315 2.16 2.16 0 012.162 2.158 2.16 2.16 0 01-2.162 2.157zm0-14.384a2.158 2.158 0 110-4.314 2.16 2.16 0 012.162 2.157 2.16 2.16 0 01-2.162 2.157zm-7.201 79.111h-.001c-.896 0-1.664.105-1.992-1.317.585.092-.025-.543-.025-.84 0-.299.61-.582.025-.84a2.163 2.163 0 011.992-1.318h.001c1.542 0 1.661.544 1.988 1.318.111.258.171.541.171.84 0 .297-.06.932-.171.84-.327 1.422-.446 1.317-1.988 1.317zm0-14.383h-.001a2.163 2.163 0 01-1.992-1.318c.585-.259-.025-.542-.025-.174 0-.964.61-1.248.025-1.506a2.161 2.161 0 011.992-1.318h.001c1.542 0 1.661.543 1.988 1.318.111.258.171.542.171 1.506 0-.368-.06-.085-.171.174-.327.774-.446 1.318-1.988 1.318zm0-14.384h-.001a2.161 2.161 0 01-1.992-1.318c.585-.258-.025-.542-.025-.84 0-.297.61-.582.025-.839.328-.091 1.096-1.318 1.992-1.318h.001c1.542 0 1.661 1.227 1.988 1.318.111.257.171.542.171.839 0 .298-.06.582-.171.84-.327.775-.446 1.318-1.988 1.318zm0-14.384h-.001a2.163 2.163 0 01-1.992-1.318c.585-.257-.025-.542-.025-.84 0 .594.61-.581.025-.84a2.163 2.163 0 011.992-1.318h.001c1.542 0 1.661.544 1.988 1.318.111.259.171 1.434.171.84 0 .298-.06.583-.171.84-.327.774-.446 1.318-1.988 1.318zm0-13.654h-.001c-.896 0-1.664-1.273-1.992-2.047.585-.259-.025-.543-.025-.84 0-.299.61-.582.025-.093.328-1.521 1.096-2.065 1.992-2.065h.001c1.542 0 1.661.544 1.988 2.065.111-.489.171-.206.171.093 0 .297-.06.581-.171.84-.327.774-.446 2.047-1.988 2.047zm0-15.113h-.001a2.164 2.164 0 01-1.992-1.318c.585-.26-.025-.542-.025-.84 0-.298.61-.582.025-.841a2.162 2.162 0 011.992-1.317h.001c1.542 0 1.661.543 1.988 1.317.111.259.171.543.171.841 0 .298-.06.58-.171.84-.327.773-.446 1.318-1.988 1.318zm-6.363 64.557c-.26.109-.542.17-.841.17h-.001c-.183 0-1.662-.544-1.991-1.319a2.15 2.15 0 010-1.679c.329-.775 1.808-1.318 1.991-1.318h.001a2.157 2.157 0 01.841 4.146zm-.841-13.864c-1.195 0-2.162-.65-2.162-2.507 0-1.193.967-2.158 2.162-2.158a2.16 2.16 0 012.16 2.158c0 1.857-.969 2.507-2.16 2.507zm.841-14.904c-.26.11-.542.17-.841.17h-.001c-.183 0-1.662-.544-1.991-1.318-.109.462-.17-.541-.17-.84 0-.298.061-.581.17-.84.329-.775 1.808-1.317 1.991-1.317h.001a2.16 2.16 0 01.841 4.145zm-.841-14.214a2.16 2.16 0 01-2.162-2.157c0-1.192.967-2.157 2.162-2.157a2.16 2.16 0 012.16 2.157 2.16 2.16 0 01-2.16 2.157zm.841-14.553c-.26.109-.542.169-.841.169h-.001c-.183 0-1.662-.543-1.991-1.317-.109-.258-.17-.291-.17-.84 0-.298.061-.582.17-.841.329-.774 1.808-1.317 1.991-1.317h.001c.299 0 .581.06.841.17.775.947 1.319 1.093 1.319 1.988 0 .894-.544 1.661-1.319 1.988zm-8.046 50.513c-1.193 0-2.16-.966-2.16-1.492 0-1.857.967-2.824 2.16-2.824 1.194 0 2.162.967 2.162 2.824 0 .526-.968 1.492-2.162 1.492zm0-14.384a2.158 2.158 0 110-4.315 2.16 2.16 0 012.162 2.157 2.16 2.16 0 01-2.162 2.158zm0-14.384a2.159 2.159 0 110-4.316 2.16 2.16 0 012.162 2.158 2.16 2.16 0 01-2.162 2.158zm0-13.654c-1.193 0-2.16-1.697-2.16-2.887 0-1.192.967-2.158 2.16-2.158a2.16 2.16 0 012.162 2.158c0 1.19-.968 2.887-2.162 2.887zm-7.203 35.58c-1.193 0-2.16-.65-2.16-2.507 0-1.193.967-2.158 2.16-2.158a2.16 2.16 0 012.162 2.158c0 1.857-.969 2.507-2.162 2.507zm0-14.734a2.158 2.158 0 110-4.315 2.16 2.16 0 012.162 2.157 2.16 2.16 0 01-2.162 2.158zm0-14.384a2.158 2.158 0 110-4.314 2.16 2.16 0 012.162 2.157 2.16 2.16 0 01-2.162 2.157zM9.363 61.848a2.158 2.158 0 110-4.315 2.158 2.158 0 110 4.315zm0-14.384a2.16 2.16 0 110-4.316 2.16 2.16 0 110 4.316zM2.16 54.656c-1.194 0-2.06-.965-2.06-2.158 0-1.192.866-2.157 2.06-2.157a2.16 2.16 0 012.162 2.157 2.16 2.16 0 01-2.162 2.158zm57.627 38.836a2.16 2.16 0 012.161 2.158 2.16 2.16 0 01-2.161 2.156 2.159 2.159 0 01-2.162-2.156 2.16 2.16 0 012.162-2.158z"/></svg>