<svg xmlns="http://www.w3.org/2000/svg" width="126" height="53"><path fill-rule="evenodd" fill="#FE3E57" d="M124.258 36.491a1.74 1.74 0 01-1.741-1.738c0-.96.78-1.603 1.741-1.603.962 0 1.741.643 1.741 1.603a1.74 1.74 0 01-1.741 1.738zm0-16.508a1.74 1.74 0 01-1.741-1.738c0-.96.78-1.738 1.741-1.738a1.74 1.74 0 110 3.476zm0-16.508a1.739 1.739 0 110-3.475 1.738 1.738 0 110 3.475zm-13.709 49.524a1.74 1.74 0 110-3.476 1.74 1.74 0 011.741 1.738 1.74 1.74 0 01-1.741 1.738zm0-16.508a1.74 1.74 0 01-1.741-1.738c0-.96.779-1.603 1.741-1.603.961 0 1.741.643 1.741 1.603a1.74 1.74 0 01-1.741 1.738zm0-16.508a1.74 1.74 0 110-3.476 1.74 1.74 0 011.741 1.738 1.74 1.74 0 01-1.741 1.738zm0-16.508a1.738 1.738 0 110-3.475 1.739 1.739 0 110 3.475zM97.56 52.999c-.61 0-2.245-.779-2.245-1.738 0-.96 1.635-1.738 2.245-1.738.62 0 1.237.778 1.237 1.738 0 .959-.617 1.738-1.237 1.738zm0-16.508c-.61 0-2.245-.779-2.245-1.738 0-.96 1.635-1.603 2.245-1.603.62 0 1.237.643 1.237 1.603 0 .959-.617 1.738-1.237 1.738zm0-16.508c-.61 0-2.245-.779-2.245-1.738 0-.96 1.635-1.738 2.245-1.738.62 0 1.237.778 1.237 1.738 0 .959-.617 1.738-1.237 1.738zm0-16.508c-.61 0-2.245-.778-2.245-1.739C95.315.777 96.95 0 97.56 0c.62 0 1.237.777 1.237 1.736 0 .961-.617 1.739-1.237 1.739zM83.347 52.999a1.74 1.74 0 110-3.476c.961 0 2.523.778 2.523 1.738 0 .959-1.562 1.738-2.523 1.738zm0-16.508a1.74 1.74 0 01-1.741-1.738c0-.96.779-1.603 1.741-1.603.961 0 2.523.643 2.523 1.603 0 .959-1.562 1.738-2.523 1.738zm0-16.508a1.74 1.74 0 110-3.476c.961 0 2.523.778 2.523 1.738 0 .959-1.562 1.738-2.523 1.738zm0-16.508a1.738 1.738 0 110-3.475c.961 0 2.523.777 2.523 1.736 0 .961-1.562 1.739-2.523 1.739zM69.854 52.999a1.74 1.74 0 01-1.741-1.738c0-.96.78-1.738 1.741-1.738a1.74 1.74 0 110 3.476zm0-16.508a1.74 1.74 0 01-1.741-1.738c0-.96.78-1.603 1.741-1.603.962 0 1.741.643 1.741 1.603a1.74 1.74 0 01-1.741 1.738zm0-16.508a1.74 1.74 0 01-1.741-1.738c0-.96.78-1.738 1.741-1.738a1.74 1.74 0 110 3.476zm0-16.508a1.739 1.739 0 110-3.475 1.738 1.738 0 110 3.475zm-13.71 49.524a1.74 1.74 0 01-1.741-1.738c0-.96.78-1.738 1.741-1.738a1.74 1.74 0 110 3.476zm0-16.508a1.74 1.74 0 01-1.741-1.738c0-.96.78-1.603 1.741-1.603.962 0 1.741.643 1.741 1.603a1.74 1.74 0 01-1.741 1.738zm0-16.508a1.74 1.74 0 01-1.741-1.738c0-.96.78-1.738 1.741-1.738a1.74 1.74 0 110 3.476zm0-16.508a1.739 1.739 0 110-3.475 1.738 1.738 0 110 3.475zM42.652 52.999a1.74 1.74 0 01-1.741-1.738c0-.96.78-1.738 1.741-1.738a1.74 1.74 0 110 3.476zm0-16.508a1.74 1.74 0 01-1.741-1.738c0-.96.78-1.603 1.741-1.603.962 0 1.741.643 1.741 1.603a1.74 1.74 0 01-1.741 1.738zm0-16.508a1.74 1.74 0 01-1.741-1.738c0-.96.78-1.738 1.741-1.738a1.74 1.74 0 110 3.476zm0-16.508a1.739 1.739 0 110-3.475 1.738 1.738 0 110 3.475zm-13.71 49.524a1.74 1.74 0 01-1.741-1.738c0-.96.78-1.738 1.741-1.738a1.74 1.74 0 110 3.476zm0-16.508a1.74 1.74 0 01-1.741-1.738c0-.96.78-1.603 1.741-1.603.962 0 1.741.643 1.741 1.603a1.74 1.74 0 01-1.741 1.738zm0-16.508a1.74 1.74 0 01-1.741-1.738c0-.96.78-1.738 1.741-1.738a1.74 1.74 0 110 3.476zm0-16.508a1.739 1.739 0 110-3.475 1.738 1.738 0 110 3.475zM15.45 52.999a1.74 1.74 0 01-1.741-1.738c0-.96.78-1.738 1.741-1.738a1.74 1.74 0 110 3.476zm0-16.508a1.74 1.74 0 01-1.741-1.738c0-.96.78-1.603 1.741-1.603.962 0 1.741.643 1.741 1.603a1.74 1.74 0 01-1.741 1.738zm0-16.508a1.74 1.74 0 01-1.741-1.738c0-.96.78-1.738 1.741-1.738a1.74 1.74 0 110 3.476zm0-16.508a1.739 1.739 0 110-3.475 1.738 1.738 0 110 3.475zM1.74 52.999a1.739 1.739 0 110-3.476 1.74 1.74 0 110 3.476zm0-16.508A1.74 1.74 0 010 34.753c0-.96.779-1.603 1.74-1.603.962 0 1.741.643 1.741 1.603a1.74 1.74 0 01-1.741 1.738zm0-16.508a1.739 1.739 0 110-3.476 1.74 1.74 0 110 3.476zm0-16.508A1.738 1.738 0 111.74 0a1.738 1.738 0 110 3.475zm122.518 46.048a1.74 1.74 0 110 3.476 1.74 1.74 0 01-1.741-1.738c0-.96.78-1.738 1.741-1.738z"/></svg>