<svg xmlns="http://www.w3.org/2000/svg" width="130" height="130"><path fill-rule="evenodd" opacity=".2" fill="#FE3E57" d="M64.999 0c35.899 0 65 29.101 65 64.999 0 35.899-29.101 65-65 65-35.898 0-64.999-29.101-64.999-65C0 29.101 29.101 0 64.999 0z"/><path fill-rule="evenodd" opacity=".6" fill="#FE3E57" d="M64.999 9.999c30.376 0 55 24.625 55 55 0 30.376-24.624 55-55 55-30.375 0-55-24.624-55-55 0-30.375 24.625-55 55-55z"/><path fill-rule="evenodd" fill="#FE3E57" d="M64.999 19.999c24.853 0 45 20.148 45 45 0 24.853-20.147 45-45 45-24.852 0-45-20.147-45-45 0-24.852 20.148-45 45-45z"/><path fill-rule="evenodd" fill="#FFF" d="M71.815 63.141l-11.824-7.605c-.546-.352-1.096-.537-1.553-.537-.884 0-.738.667-.738 1.782v16.437c0 1.115-.147 1.78.735 1.78.458 0 .999-.186 1.547-.538l11.829-7.605c.761-.49 1.182-1.15 1.182-1.857 0-.708-.416-1.367-1.178-1.857"/></svg>