<svg xmlns="http://www.w3.org/2000/svg" width="20" height="20"><path fill-rule="evenodd" fill="#8D8D8D" d="M9.999 10.832a.834.834 0 01-.833-.833V4.165a.834.834 0 111.667 0v5h3.333a.834.834 0 010 1.667H9.999zm0 9.166C4.486 19.998 0 15.512 0 9.999 0 4.485 4.486.1 9.999.1c2.252 0 4.458.665 6.211 2.059.36.286.42.81.134 1.17.226.361-.812.421-1.171.134a8.234 8.234 0 00-5.174-1.797c-4.595 0-8.333 3.738-8.333 8.333 0 4.594 3.738 8.333 8.333 8.333 4.595 0 8.334-3.739 8.334-8.333 0-1.275.217-2.494-.825-3.625a.833.833 0 01.387-1.113c.413.339.913-.028 1.905.387-.134 2.052.199 2.822.199 4.351 0 5.513-4.486 9.999-10 9.999z"/></svg>